<?xml version="1.0" encoding="UTF-8"?>
<svg id="Capa_1" data-name="Capa 1" xmlns="http://www.w3.org/2000/svg" viewBox="0 0 300 300">
  <defs>
    <style>
      .cls-1 {
        fill: #4d1658;
      }

      .cls-1, .cls-2, .cls-3, .cls-4, .cls-5, .cls-6, .cls-7, .cls-8, .cls-9, .cls-10, .cls-11, .cls-12, .cls-13, .cls-14 {
        fill-rule: evenodd;
      }

      .cls-2 {
        fill: #155e76;
      }

      .cls-15, .cls-16 {
        fill: #fff;
      }

      .cls-3 {
        fill: #2188b8;
      }

      .cls-4 {
        fill: #389eb8;
      }

      .cls-5 {
        fill: #39b7cc;
      }

      .cls-6 {
        fill: #0b6281;
      }

      .cls-16 {
        font-family: Roboto-Regular, Roboto;
        font-size: 19.61px;
      }

      .cls-7 {
        fill: #b31c80;
      }

      .cls-8 {
        fill: #e30d6f;
      }

      .cls-17 {
        letter-spacing: -.02em;
      }

      .cls-9 {
        fill: #299dc8;
      }

      .cls-10 {
        fill: #9eced8;
      }

      .cls-11 {
        fill: #792881;
      }

      .cls-12 {
        fill: #cadee3;
      }

      .cls-13 {
        fill: #389eb9;
      }

      .cls-14 {
        fill: #002935;
      }
    </style>
  </defs>
  <g>
    <path class="cls-15" d="M9.15,226.64v-38.51h14.52c2.56,0,4.51,.12,5.86,.37,1.89,.31,3.48,.92,4.75,1.8,1.28,.88,2.31,2.12,3.09,3.72s1.17,3.34,1.17,5.25c0,3.27-1.04,6.05-3.13,8.31-2.08,2.27-5.85,3.4-11.29,3.4H14.25v15.65h-5.1Zm5.1-20.2h9.95c3.29,0,5.63-.61,7.01-1.84,1.38-1.23,2.07-2.95,2.07-5.17,0-1.61-.41-2.99-1.22-4.14-.81-1.15-1.89-1.9-3.22-2.27-.86-.23-2.44-.34-4.75-.34H14.25v13.76Z"/>
    <path class="cls-15" d="M62.71,226.64v-4.1c-2.17,3.15-5.12,4.73-8.85,4.73-1.65,0-3.18-.32-4.61-.95-1.43-.63-2.49-1.42-3.18-2.38-.69-.95-1.18-2.12-1.46-3.51-.19-.93-.29-2.4-.29-4.41v-17.28h4.73v15.47c0,2.47,.1,4.13,.29,4.99,.3,1.24,.93,2.22,1.89,2.93s2.15,1.06,3.57,1.06,2.75-.36,3.99-1.09c1.24-.73,2.12-1.72,2.64-2.97,.52-1.25,.77-3.07,.77-5.45v-14.95h4.73v27.89h-4.23Z"/>
    <path class="cls-15" d="M78.7,226.64h-4.39v-38.51h4.73v13.74c2-2.5,4.54-3.76,7.64-3.76,1.72,0,3.34,.35,4.87,1.04,1.53,.69,2.79,1.66,3.78,2.92s1.76,2.76,2.32,4.53c.56,1.77,.84,3.66,.84,5.67,0,4.78-1.18,8.47-3.55,11.08s-5.2,3.91-8.51,3.91-5.88-1.38-7.75-4.12v3.49Zm-.05-14.16c0,3.34,.46,5.76,1.37,7.25,1.49,2.43,3.5,3.65,6.04,3.65,2.07,0,3.85-.9,5.36-2.69,1.51-1.79,2.26-4.47,2.26-8.02s-.72-6.33-2.17-8.06c-1.44-1.73-3.19-2.6-5.24-2.6s-3.85,.9-5.36,2.69c-1.51,1.79-2.26,4.39-2.26,7.79Z"/>
    <path class="cls-15" d="M104.15,226.64v-38.51h4.73v38.51h-4.73Z"/>
    <path class="cls-15" d="M116.24,193.57v-5.44h4.73v5.44h-4.73Zm0,33.07v-27.89h4.73v27.89h-4.73Z"/>
    <path class="cls-15" d="M146.36,216.42l4.65,.6c-.51,3.2-1.81,5.71-3.9,7.53s-4.66,2.72-7.71,2.72c-3.82,0-6.89-1.25-9.21-3.74-2.32-2.5-3.48-6.07-3.48-10.73,0-3.01,.5-5.65,1.5-7.91,1-2.26,2.52-3.95,4.56-5.08,2.04-1.13,4.26-1.69,6.66-1.69,3.03,0,5.51,.77,7.43,2.3s3.16,3.71,3.7,6.53l-4.6,.71c-.44-1.87-1.21-3.28-2.32-4.23-1.11-.95-2.46-1.42-4.03-1.42-2.38,0-4.32,.85-5.81,2.56-1.49,1.71-2.23,4.41-2.23,8.1s.72,6.47,2.15,8.17c1.44,1.7,3.31,2.55,5.62,2.55,1.86,0,3.41-.57,4.65-1.71,1.24-1.14,2.03-2.89,2.36-5.25Z"/>
    <path class="cls-15" d="M155.08,193.57v-5.44h4.73v5.44h-4.73Zm0,33.07v-27.89h4.73v27.89h-4.73Z"/>
    <path class="cls-15" d="M177.33,222.41l.68,4.18c-1.33,.28-2.52,.42-3.57,.42-1.72,0-3.05-.27-3.99-.81-.95-.54-1.61-1.26-2-2.14-.38-.88-.58-2.75-.58-5.58v-16.05h-3.47v-3.68h3.47v-6.91l4.7-2.84v9.74h4.75v3.68h-4.75v16.31c0,1.35,.08,2.22,.25,2.6,.17,.39,.44,.69,.81,.92,.38,.23,.92,.34,1.62,.34,.53,0,1.22-.06,2.08-.18Z"/>
    <path class="cls-15" d="M200.15,223.2c-1.75,1.49-3.44,2.54-5.06,3.15-1.62,.61-3.36,.92-5.21,.92-3.06,0-5.42-.75-7.07-2.25-1.65-1.5-2.47-3.41-2.47-5.74,0-1.37,.31-2.61,.93-3.74,.62-1.13,1.44-2.04,2.44-2.72,1.01-.68,2.14-1.2,3.4-1.55,.93-.25,2.33-.48,4.2-.71,3.82-.46,6.63-1,8.43-1.63,.02-.65,.03-1.06,.03-1.23,0-1.93-.45-3.28-1.34-4.07-1.21-1.07-3-1.6-5.38-1.6-2.22,0-3.87,.39-4.92,1.17s-1.84,2.16-2.35,4.14l-4.62-.63c.42-1.98,1.11-3.58,2.08-4.79,.96-1.22,2.35-2.15,4.18-2.81,1.82-.66,3.93-.98,6.33-.98s4.32,.28,5.8,.84c1.49,.56,2.58,1.27,3.28,2.12,.7,.85,1.19,1.92,1.47,3.22,.16,.81,.24,2.26,.24,4.36v6.3c0,4.4,.1,7.17,.3,8.34,.2,1.16,.6,2.28,1.2,3.35h-4.94c-.49-.98-.81-2.13-.95-3.44Zm-.39-10.56c-1.72,.7-4.29,1.3-7.72,1.79-1.94,.28-3.32,.6-4.12,.95-.81,.35-1.43,.86-1.86,1.54-.44,.67-.66,1.42-.66,2.25,0,1.26,.48,2.31,1.43,3.15s2.35,1.26,4.19,1.26,3.44-.4,4.86-1.2c1.42-.8,2.46-1.89,3.13-3.27,.51-1.07,.76-2.64,.76-4.73v-1.73Z"/>
    <path class="cls-15" d="M211.82,226.64v-27.89h4.25v4.23c1.09-1.98,2.09-3.28,3.01-3.91,.92-.63,1.93-.95,3.03-.95,1.59,0,3.21,.51,4.86,1.52l-1.63,4.39c-1.16-.68-2.31-1.02-3.47-1.02-1.03,0-1.96,.31-2.78,.93-.82,.62-1.41,1.48-1.76,2.59-.53,1.68-.79,3.52-.79,5.52v14.6h-4.73Z"/>
    <path class="cls-15" d="M229.81,193.57v-5.44h4.73v5.44h-4.73Zm0,33.07v-27.89h4.73v27.89h-4.73Z"/>
    <path class="cls-15" d="M239.97,212.69c0-5.17,1.44-8.99,4.31-11.48,2.4-2.07,5.32-3.1,8.77-3.1,3.83,0,6.97,1.26,9.4,3.77,2.43,2.51,3.65,5.98,3.65,10.42,0,3.59-.54,6.41-1.62,8.47-1.08,2.06-2.64,3.66-4.7,4.79-2.06,1.14-4.3,1.71-6.74,1.71-3.9,0-7.06-1.25-9.47-3.76-2.41-2.5-3.61-6.11-3.61-10.82Zm4.86,0c0,3.57,.78,6.25,2.34,8.02,1.56,1.78,3.52,2.67,5.88,2.67s4.3-.89,5.86-2.68c1.56-1.79,2.34-4.51,2.34-8.17,0-3.45-.78-6.06-2.35-7.84-1.57-1.78-3.52-2.67-5.84-2.67s-4.33,.88-5.88,2.65c-1.56,1.77-2.34,4.44-2.34,8.01Z"/>
    <path class="cls-15" d="M269.76,218.31l4.68-.74c.26,1.87,.99,3.31,2.19,4.31,1.2,1,2.88,1.5,5.03,1.5s3.78-.44,4.83-1.33c1.05-.88,1.58-1.92,1.58-3.11,0-1.07-.46-1.91-1.39-2.52-.65-.42-2.26-.95-4.83-1.6-3.47-.88-5.87-1.63-7.21-2.27-1.34-.64-2.36-1.52-3.05-2.65-.69-1.13-1.04-2.38-1.04-3.74,0-1.24,.29-2.39,.85-3.45,.57-1.06,1.34-1.94,2.33-2.64,.74-.54,1.74-1,3.01-1.38,1.27-.38,2.63-.56,4.08-.56,2.19,0,4.11,.31,5.77,.95,1.65,.63,2.88,1.48,3.66,2.56,.79,1.08,1.33,2.52,1.63,4.32l-4.62,.63c-.21-1.44-.82-2.56-1.83-3.36s-2.43-1.21-4.27-1.21c-2.17,0-3.72,.36-4.65,1.08-.93,.72-1.39,1.56-1.39,2.52,0,.61,.19,1.17,.58,1.66,.38,.51,.99,.93,1.81,1.26,.47,.17,1.86,.58,4.18,1.21,3.34,.89,5.68,1.62,7,2.19s2.36,1.4,3.11,2.48c.75,1.09,1.13,2.43,1.13,4.04s-.46,3.06-1.38,4.45c-.92,1.39-2.25,2.47-3.98,3.23s-3.69,1.14-5.88,1.14c-3.62,0-6.39-.75-8.29-2.26-1.9-1.5-3.11-3.74-3.64-6.7Z"/>
  </g>
  <text class="cls-16" transform="translate(8.62 248.96)"><tspan x="0" y="0">Encuent</tspan><tspan class="cls-17" x="70.66" y="0">r</tspan><tspan x="76.91" y="0">a más que un obsequio</tspan></text>
  <g>
    <polygon class="cls-10" points="221.8 45.72 252.75 77.14 221.8 77.14 221.8 45.72"/>
    <polygon class="cls-4" points="221.8 108.09 252.75 77.14 221.8 77.14 221.8 108.09"/>
    <polygon class="cls-6" points="221.8 108.09 190.39 108.09 221.8 77.14 221.8 108.09"/>
    <polygon class="cls-12" points="221.8 140.92 252.75 140.92 221.8 110.9 221.8 140.92"/>
    <polygon class="cls-14" points="190.39 108.09 221.8 140.92 221.8 108.09 190.39 108.09"/>
    <polygon class="cls-9" points="221.8 174.21 252.75 140.92 221.8 140.92 221.8 174.21"/>
    <polygon class="cls-13" points="157.09 45.72 188.04 77.14 157.09 77.14 157.09 45.72"/>
    <polygon class="cls-10" points="157.09 110.9 188.04 77.14 157.09 77.14 157.09 110.9"/>
    <polygon class="cls-12" points="188.04 110.9 188.04 77.14 157.09 110.9 188.04 110.9"/>
    <polygon class="cls-5" points="188.04 140.92 188.04 110.9 157.09 110.9 188.04 140.92"/>
    <polygon class="cls-2" points="157.09 140.92 157.09 110.9 188.04 140.92 157.09 140.92"/>
    <polygon class="cls-3" points="157.09 174.21 188.04 140.92 157.09 140.92 157.09 174.21"/>
    <polygon class="cls-7" points="110.1 46.19 141.56 78.13 110.1 78.13 110.1 46.19"/>
    <polygon class="cls-7" points="110.1 142.08 141.56 110.14 110.1 110.14 110.1 142.08"/>
    <polygon class="cls-11" points="78.72 174.09 110.18 142.14 78.72 142.14 78.72 174.09"/>
    <polygon class="cls-8" points="141.56 110.14 110.1 142.08 141.56 142.08 141.56 110.14"/>
    <polygon class="cls-1" points="141.56 78.13 110.1 46.19 141.56 46.19 141.56 78.13"/>
    <polygon class="cls-8" points="78.72 174.09 47.25 142.14 78.72 142.14 78.72 174.09"/>
    <polygon class="cls-8" points="110.1 110.08 141.56 78.13 110.1 78.13 110.1 110.08"/>
    <polygon class="cls-11" points="141.48 78.19 110.01 110.14 141.48 110.14 141.48 78.19"/>
    <polygon class="cls-11" points="47.34 142.08 78.8 110.14 47.34 110.14 47.34 142.08"/>
    <polygon class="cls-7" points="78.72 110.2 47.25 142.14 78.72 142.14 78.72 110.2"/>
    <polygon class="cls-1" points="110.1 174.09 141.56 142.14 110.1 142.14 110.1 174.09"/>
    <polygon class="cls-7" points="110.1 142.2 78.63 174.15 110.1 174.15 110.1 142.2"/>
  </g>
</svg>